<svg width="31" height="26" viewBox="0 0 31 26" fill="none" xmlns="http://www.w3.org/2000/svg">
<path fill-rule="evenodd" clip-rule="evenodd" d="M30.1719 0.723145H15.4141V4.84863H21.1328C22.2374 4.84863 23.1328 5.74406 23.1328 6.84863V12.9863H23.1728L27.3721 15.4929L27.3645 12.9863H30.1719V0.723145Z" fill="white"/>
<path fill-rule="evenodd" clip-rule="evenodd" d="M0.5 8.05762C0.5 6.95305 1.39543 6.05762 2.5 6.05762H19.3555C20.46 6.05762 21.3555 6.95305 21.3555 8.05762V19.8457C21.3555 20.9503 20.46 21.8457 19.3555 21.8457H13.6955L6.79308 25.9658L6.80564 21.8457H2.5C1.39543 21.8457 0.5 20.9503 0.5 19.8457V8.05762ZM6.67188 12.5195C5.90234 12.5195 5.27734 13.144 5.27734 13.9141V13.9888C5.27734 14.7588 5.90234 15.3833 6.67188 15.3833C6.76562 15.3833 6.85547 15.374 6.94531 15.3569C7.03906 15.3384 7.12891 15.3105 7.21484 15.2739C7.71484 15.0625 8.06641 14.5664 8.06641 13.9888V13.9141C8.06641 13.144 7.44141 12.5195 6.67188 12.5195ZM9.80469 13.0918C9.63672 13.3223 9.53516 13.6064 9.53516 13.9141V13.9888C9.53516 14.7588 10.1602 15.3833 10.9297 15.3833C11.3477 15.3833 11.7227 15.1992 11.9805 14.9077C12.0938 14.7788 12.1836 14.6289 12.2422 14.4644C12.293 14.3159 12.3242 14.1558 12.3242 13.9888V13.9141C12.3242 13.144 11.6992 12.5195 10.9297 12.5195C10.4688 12.5195 10.0586 12.7446 9.80469 13.0918ZM13.793 13.9141C13.793 13.144 14.418 12.5195 15.1875 12.5195C15.5664 12.5195 15.9102 12.6719 16.1641 12.9189C16.4219 13.1719 16.582 13.5244 16.582 13.9141V13.9888C16.582 14.7588 15.957 15.3833 15.1875 15.3833C14.418 15.3833 13.793 14.7588 13.793 13.9888V13.9141Z" fill="white"/>
</svg>
